<svg width="31" height="29" viewBox="0 0 31 29" fill="none" xmlns="http://www.w3.org/2000/svg">
<path d="M15.4999 1.31085V18.8488" stroke="#201B10" stroke-width="2.5" stroke-miterlimit="10" stroke-linecap="round"/>
<path d="M22.2446 7.50004L16.4623 1.71629C16.2065 1.46319 15.8612 1.32123 15.5013 1.32123C15.1414 1.32123 14.7961 1.46319 14.5403 1.71629L8.75505 7.50004M2.01026 16.8246V23.5694C2.00968 24.0125 2.09654 24.4514 2.26585 24.8609C2.43516 25.2704 2.6836 25.6425 2.99694 25.9559C3.31028 26.2692 3.68236 26.5176 4.09186 26.687C4.50137 26.8563 4.94026 26.9431 5.38338 26.9425H25.6178C26.0608 26.9429 26.4995 26.8559 26.9088 26.6865C27.3182 26.5171 27.6901 26.2687 28.0033 25.9553C28.3164 25.642 28.5648 25.27 28.734 24.8606C28.9032 24.4512 28.99 24.0124 28.9894 23.5694V16.8246" stroke="#201B10" stroke-width="2.5" stroke-linecap="round" stroke-linejoin="round"/>
</svg>
