<svg width="26" height="30" viewBox="0 0 26 30" fill="none" xmlns="http://www.w3.org/2000/svg">
<path d="M8.86848 16.3772H17.1317M8.86848 21.8861H13.0001M1.98242 3.98233V26.0177C1.98242 26.7482 2.27262 27.4488 2.78917 27.9654C3.30573 28.4819 4.00633 28.7721 4.73684 28.7721H21.2634C21.9939 28.7721 22.6945 28.4819 23.211 27.9654C23.7276 27.4488 24.0178 26.7482 24.0178 26.0177V9.96218C24.0178 9.59523 23.9444 9.232 23.802 8.8938C23.6596 8.5556 23.4511 8.24926 23.1887 7.99277L17.0739 2.01292C16.5593 1.50976 15.8683 1.22799 15.1486 1.22791H4.73684C4.00633 1.22791 3.30573 1.5181 2.78917 2.03466C2.27262 2.55121 1.98242 3.25181 1.98242 3.98233Z" stroke="#201B10" stroke-width="2" stroke-linecap="round" stroke-linejoin="round"/>
<path d="M15.7549 1.22791V6.73675C15.7549 7.46727 16.0451 8.16787 16.5616 8.68442C17.0782 9.20097 17.7788 9.49117 18.5093 9.49117H24.0181" stroke="#201B10" stroke-width="2" stroke-linejoin="round"/>
</svg>
