<svg width="50" height="50" viewBox="0 0 50 50" fill="none" xmlns="http://www.w3.org/2000/svg">
<path fill-rule="evenodd" clip-rule="evenodd" d="M25.0001 5C19.6958 5 14.6087 7.10714 10.858 10.8579C7.10726 14.6086 5.00012 19.6957 5.00012 25C5.00012 30.3043 7.10726 35.3914 10.858 39.1421C14.6087 42.8929 19.6958 45 25.0001 45C30.3045 45 35.3915 42.8929 39.1423 39.1421C42.893 35.3914 45.0001 30.3043 45.0001 25C45.0001 19.6957 42.893 14.6086 39.1423 10.8579C35.3915 7.10714 30.3045 5 25.0001 5ZM0.00012207 25C0.00012207 11.1925 11.1926 0 25.0001 0C38.8076 0 50.0001 11.1925 50.0001 25C50.0001 38.8075 38.8076 50 25.0001 50C11.1926 50 0.00012207 38.8075 0.00012207 25Z" fill="white"/>
<path fill-rule="evenodd" clip-rule="evenodd" d="M24.9998 5.00003C19.8434 4.98966 14.8843 6.98119 11.1673 10.555C10.9303 10.7822 10.6508 10.9605 10.3449 11.0797C10.039 11.1989 9.71254 11.2566 9.38429 11.2497C9.05603 11.2427 8.73236 11.1711 8.43176 11.0391C8.13116 10.907 7.85951 10.7171 7.63232 10.48C7.40513 10.243 7.22686 9.96353 7.10767 9.6576C6.98849 9.35167 6.93073 9.02526 6.9377 8.697C6.94466 8.36875 7.01621 8.04508 7.14826 7.74447C7.28032 7.44387 7.47028 7.17222 7.70732 6.94503C12.3553 2.47906 18.554 -0.0104686 24.9998 3.30904e-05C25.6629 3.30904e-05 26.2987 0.263425 26.7676 0.732266C27.2364 1.20111 27.4998 1.83699 27.4998 2.50003C27.4998 3.16307 27.2364 3.79896 26.7676 4.2678C26.2987 4.73664 25.6629 5.00003 24.9998 5.00003Z" fill="#2AE881"/>
</svg>
