<svg width="33" height="33" viewBox="0 0 33 33" fill="none" xmlns="http://www.w3.org/2000/svg">
<path d="M16.3468 0.411621C13.1329 0.411621 9.99109 1.36467 7.31879 3.15024C4.64649 4.93581 2.56369 7.47372 1.33377 10.443C0.103843 13.4123 -0.217962 16.6796 0.409048 19.8318C1.03606 22.984 2.58372 25.8795 4.85632 28.1521C7.12893 30.4247 10.0244 31.9724 13.1766 32.5994C16.3288 33.2264 19.5961 32.9046 22.5654 31.6747C25.5347 30.4447 28.0726 28.3619 29.8582 25.6896C31.6438 23.0173 32.5968 19.8756 32.5968 16.6616C32.5923 12.3532 30.8787 8.22264 27.8323 5.17616C24.7858 2.12968 20.6552 0.416171 16.3468 0.411621ZM16.3468 30.4116C13.6273 30.4116 10.9689 29.6052 8.70772 28.0943C6.44654 26.5835 4.68417 24.436 3.64347 21.9235C2.60276 19.411 2.33046 16.6464 2.86101 13.9791C3.39156 11.3119 4.70112 8.86187 6.62409 6.9389C8.54706 5.01593 10.9971 3.70637 13.6643 3.17582C16.3316 2.64528 19.0962 2.91757 21.6087 3.95828C24.1212 4.99898 26.2686 6.76135 27.7795 9.02253C29.2904 11.2837 30.0968 13.9421 30.0968 16.6616C30.0927 20.3071 28.6427 23.802 26.065 26.3798C23.4872 28.9575 19.9923 30.4075 16.3468 30.4116ZM8.84681 13.5366C8.84681 13.1658 8.95677 12.8033 9.1628 12.4949C9.36883 12.1866 9.66167 11.9463 10.0043 11.8043C10.3469 11.6624 10.7239 11.6253 11.0876 11.6976C11.4513 11.77 11.7854 11.9486 12.0476 12.2108C12.3099 12.473 12.4884 12.8071 12.5608 13.1708C12.6331 13.5345 12.596 13.9115 12.4541 14.2542C12.3122 14.5968 12.0718 14.8896 11.7635 15.0956C11.4552 15.3017 11.0926 15.4116 10.7218 15.4116C10.2245 15.4116 9.74761 15.2141 9.39598 14.8624C9.04435 14.5108 8.84681 14.0339 8.84681 13.5366ZM23.8468 13.5366C23.8468 13.9075 23.7368 14.27 23.5308 14.5783C23.3248 14.8867 23.0319 15.127 22.6893 15.2689C22.3467 15.4108 21.9697 15.4479 21.606 15.3756C21.2423 15.3032 20.9082 15.1247 20.646 14.8624C20.3838 14.6002 20.2052 14.2661 20.1328 13.9024C20.0605 13.5387 20.0976 13.1617 20.2395 12.8191C20.3815 12.4765 20.6218 12.1836 20.9301 11.9776C21.2385 11.7716 21.601 11.6616 21.9718 11.6616C22.4691 11.6616 22.946 11.8592 23.2976 12.2108C23.6493 12.5624 23.8468 13.0393 23.8468 13.5366Z" fill="#8F64AE"/>
<path d="M23.1704 19.5296C23.8423 19.7798 24.1924 20.5339 23.8435 21.1602C23.206 22.3042 22.3112 23.2918 21.2229 24.0409C19.7764 25.0366 18.0584 25.5626 16.3025 25.5475C14.5465 25.5325 12.8378 24.977 11.4086 23.9566C10.3334 23.189 9.45562 22.1862 8.83791 21.0314C8.49974 20.3992 8.86277 19.6512 9.53884 19.4126C10.2149 19.1739 10.9454 19.5396 11.3246 20.148C11.7366 20.8089 12.2766 21.3862 12.9172 21.8436C13.9123 22.5541 15.1021 22.9408 16.3248 22.9513C17.5474 22.9618 18.7436 22.5955 19.7508 21.9023C20.3992 21.4559 20.949 20.888 21.3723 20.2343C21.7619 19.6325 22.4985 19.2794 23.1704 19.5296Z" fill="#8F64AE"/>
</svg>
