<svg width="28" height="28" viewBox="0 0 28 28" fill="none" xmlns="http://www.w3.org/2000/svg">
<path d="M14.1887 27.8826C21.6317 27.8826 27.6654 21.8489 27.6654 14.4059C27.6654 6.96292 21.6317 0.929199 14.1887 0.929199C6.74576 0.929199 0.712036 6.96292 0.712036 14.4059C0.712036 21.8489 6.74576 27.8826 14.1887 27.8826Z" fill="black"/>
<path d="M13.5656 14.311H11.9561C11.9561 15.4098 11.6776 16.6481 11.1513 17.4838C9.9441 16.7719 8.9691 15.704 8.16424 14.7135C9.91321 14.1874 12.0333 13.2896 12.0333 11.0609C12.0333 9.35825 10.8262 8.04272 8.72124 8.04272C6.46161 8.04272 5.26989 9.62131 5.26989 11.2928C5.26989 12.1906 5.5175 13.1344 6.04361 14.156C4.77467 14.8525 4.15564 15.9204 4.15564 17.1122C4.15564 19.1396 6.04386 20.4243 8.31894 20.4243C9.37141 20.4243 10.4393 20.0065 11.3834 19.2017C12.5752 19.8827 13.9061 20.2232 15.2525 20.2232V18.8768C14.4631 18.8459 13.163 18.6138 12.4511 18.1649C13.1785 17.0352 13.5345 15.6267 13.5653 14.3112L13.5656 14.311ZM8.68039 9.38939C9.7914 9.39213 10.4393 10.2418 10.4393 11.0606C10.4393 12.2832 8.9691 13.0106 7.4523 13.5833C7.05 12.7785 6.86416 12.0665 6.86416 11.3391C6.86416 10.3978 7.47995 9.39487 8.68039 9.38914V9.38939ZM8.31894 19.0778C6.97252 19.0778 5.74967 18.4743 5.74967 17.1124C5.74967 16.5397 5.95094 15.766 6.74011 15.2708C7.60675 16.4625 8.76758 17.5613 10.0985 18.4591C9.61877 18.8459 9.06152 19.0781 8.31869 19.0781L8.31894 19.0778Z" fill="#F3F4F4"/>
<path d="M19.5974 8.04272C18.545 8.04272 17.4771 8.46047 16.5329 9.26533C15.3412 8.58428 14.0103 8.24375 12.6638 8.24375V9.59017C13.4533 9.62106 14.7533 9.85322 15.465 10.3021C14.7376 11.4318 14.3817 12.8402 14.3508 14.1558H15.9605C15.9605 13.057 16.239 11.8187 16.7654 10.9829C17.9725 11.6949 18.9475 12.7628 19.7524 13.7532C18.0034 14.2793 15.8833 15.1771 15.8833 17.4059C15.8833 19.1082 17.0904 20.4238 19.1954 20.4238C21.455 20.4238 22.6467 18.8452 22.6467 17.1737C22.6467 16.2759 22.3991 15.332 21.873 14.3105C23.1422 13.614 23.7612 12.5461 23.7612 11.3543C23.7607 9.32736 21.8725 8.04272 19.5974 8.04272ZM19.236 19.0776C18.125 19.0749 17.4771 18.2252 17.4771 17.4064C17.4771 16.1837 18.9473 15.4564 20.4641 14.8837C20.8664 15.6885 21.0522 16.4005 21.0522 17.1278C21.0522 18.0692 20.4364 19.0721 19.236 19.0778V19.0776ZM21.176 13.1965C20.3094 12.0047 19.1485 10.9059 17.8176 10.0082C18.2974 9.62131 18.8546 9.38914 19.5974 9.38914C20.9439 9.38914 22.1667 9.99272 22.1667 11.3546C22.1667 11.9273 21.9654 12.701 21.1763 13.1962L21.176 13.1965Z" fill="#F3F4F4"/>
</svg>
